<svg xmlns="http://www.w3.org/2000/svg" viewBox="0 0 1040 512" width="1040" height="512" font-family="ui-monospace, SFMono-Regular, Menlo, Consolas, monospace" font-size="13">
<rect x="0.0" y="0.0" width="1040.0" height="16.0" fill="#041204"/>
<rect x="0.0" y="16.0" width="1040.0" height="16.0" fill="#020a02"/>
<rect x="0.0" y="32.0" width="1040.0" height="16.0" fill="#020a02"/>
<rect x="0.0" y="48.0" width="1040.0" height="16.0" fill="#020a02"/>
<rect x="0.0" y="64.0" width="1040.0" height="16.0" fill="#020a02"/>
<rect x="0.0" y="80.0" width="1040.0" height="16.0" fill="#020a02"/>
<rect x="0.0" y="96.0" width="1040.0" height="16.0" fill="#020a02"/>
<rect x="0.0" y="112.0" width="1040.0" height="16.0" fill="#020a02"/>
<rect x="0.0" y="128.0" width="1040.0" height="16.0" fill="#020a02"/>
<rect x="0.0" y="144.0" width="1040.0" height="16.0" fill="#020a02"/>
<rect x="0.0" y="160.0" width="1040.0" height="16.0" fill="#020a02"/>
<rect x="0.0" y="176.0" width="1040.0" height="16.0" fill="#020a02"/>
<rect x="0.0" y="192.0" width="1040.0" height="16.0" fill="#020a02"/>
<rect x="0.0" y="208.0" width="1040.0" height="16.0" fill="#020a02"/>
<rect x="0.0" y="224.0" width="1040.0" height="16.0" fill="#020a02"/>
<rect x="0.0" y="240.0" width="1040.0" height="16.0" fill="#020a02"/>
<rect x="0.0" y="256.0" width="1040.0" height="16.0" fill="#020a02"/>
<rect x="0.0" y="272.0" width="1040.0" height="16.0" fill="#020a02"/>
<rect x="0.0" y="288.0" width="1040.0" height="16.0" fill="#020a02"/>
<rect x="0.0" y="304.0" width="1040.0" height="16.0" fill="#020a02"/>
<rect x="0.0" y="320.0" width="1040.0" height="16.0" fill="#020a02"/>
<rect x="0.0" y="336.0" width="1040.0" height="16.0" fill="#020a02"/>
<rect x="0.0" y="352.0" width="1040.0" height="16.0" fill="#020a02"/>
<rect x="0.0" y="368.0" width="1040.0" height="16.0" fill="#020a02"/>
<rect x="0.0" y="384.0" width="1040.0" height="16.0" fill="#020a02"/>
<rect x="0.0" y="400.0" width="1040.0" height="16.0" fill="#020a02"/>
<rect x="0.0" y="416.0" width="1040.0" height="16.0" fill="#020a02"/>
<rect x="0.0" y="432.0" width="1040.0" height="16.0" fill="#020a02"/>
<rect x="0.0" y="448.0" width="1040.0" height="16.0" fill="#020a02"/>
<rect x="0.0" y="464.0" width="1040.0" height="16.0" fill="#020a02"/>
<rect x="0.0" y="480.0" width="1040.0" height="16.0" fill="#020a02"/>
<rect x="0.0" y="496.0" width="64.0" height="16.0" fill="#33ff33"/>
<rect x="64.0" y="496.0" width="976.0" height="16.0" fill="#041204"/>
<text x="8.00" y="12.48" fill="#66ff66">▶</text>
<text x="16.00" y="12.48" fill="#aaffaa">▮</text>
<text x="24.00" y="12.48" fill="#66ff66">◀</text>
<text x="40.00" y="12.48" fill="#33ff33" font-weight="bold">/</text>
<text x="48.00" y="12.48" fill="#33ff33" font-weight="bold">t</text>
<text x="56.00" y="12.48" fill="#33ff33" font-weight="bold">m</text>
<text x="64.00" y="12.48" fill="#33ff33" font-weight="bold">p</text>
<text x="72.00" y="12.48" fill="#33ff33" font-weight="bold">/</text>
<text x="80.00" y="12.48" fill="#33ff33" font-weight="bold">t</text>
<text x="88.00" y="12.48" fill="#33ff33" font-weight="bold">u</text>
<text x="96.00" y="12.48" fill="#33ff33" font-weight="bold">x</text>
<text x="104.00" y="12.48" fill="#33ff33" font-weight="bold">e</text>
<text x="112.00" y="12.48" fill="#33ff33" font-weight="bold">d</text>
<text x="120.00" y="12.48" fill="#33ff33" font-weight="bold">o</text>
<text x="128.00" y="12.48" fill="#33ff33" font-weight="bold">-</text>
<text x="136.00" y="12.48" fill="#33ff33" font-weight="bold">s</text>
<text x="144.00" y="12.48" fill="#33ff33" font-weight="bold">c</text>
<text x="152.00" y="12.48" fill="#33ff33" font-weight="bold">r</text>
<text x="160.00" y="12.48" fill="#33ff33" font-weight="bold">e</text>
<text x="168.00" y="12.48" fill="#33ff33" font-weight="bold">e</text>
<text x="176.00" y="12.48" fill="#33ff33" font-weight="bold">n</text>
<text x="184.00" y="12.48" fill="#33ff33" font-weight="bold">s</text>
<text x="192.00" y="12.48" fill="#33ff33" font-weight="bold">h</text>
<text x="200.00" y="12.48" fill="#33ff33" font-weight="bold">o</text>
<text x="208.00" y="12.48" fill="#33ff33" font-weight="bold">t</text>
<text x="216.00" y="12.48" fill="#33ff33" font-weight="bold">s</text>
<text x="224.00" y="12.48" fill="#33ff33" font-weight="bold">-</text>
<text x="232.00" y="12.48" fill="#33ff33" font-weight="bold">e</text>
<text x="240.00" y="12.48" fill="#33ff33" font-weight="bold">m</text>
<text x="248.00" y="12.48" fill="#33ff33" font-weight="bold">p</text>
<text x="256.00" y="12.48" fill="#33ff33" font-weight="bold">t</text>
<text x="264.00" y="12.48" fill="#33ff33" font-weight="bold">y</text>
<text x="272.00" y="12.48" fill="#33ff33" font-weight="bold">.</text>
<text x="280.00" y="12.48" fill="#33ff33" font-weight="bold">t</text>
<text x="288.00" y="12.48" fill="#33ff33" font-weight="bold">x</text>
<text x="296.00" y="12.48" fill="#33ff33" font-weight="bold">t</text>
<text x="320.00" y="12.48" fill="#1d8f1d">•</text>
<text x="344.00" y="12.48" fill="#1d8f1d">0</text>
<text x="360.00" y="12.48" fill="#1d8f1d">t</text>
<text x="368.00" y="12.48" fill="#1d8f1d">a</text>
<text x="376.00" y="12.48" fill="#1d8f1d">s</text>
<text x="384.00" y="12.48" fill="#1d8f1d">k</text>
<text x="392.00" y="12.48" fill="#1d8f1d">s</text>
<text x="416.00" y="12.48" fill="#1d8f1d">•</text>
<text x="440.00" y="12.48" fill="#66ff66">s</text>
<text x="448.00" y="12.48" fill="#66ff66">o</text>
<text x="456.00" y="12.48" fill="#66ff66">r</text>
<text x="464.00" y="12.48" fill="#66ff66">t</text>
<text x="472.00" y="12.48" fill="#66ff66">:</text>
<text x="480.00" y="12.48" fill="#66ff66">p</text>
<text x="488.00" y="12.48" fill="#66ff66">r</text>
<text x="496.00" y="12.48" fill="#66ff66">i</text>
<text x="504.00" y="12.48" fill="#66ff66">o</text>
<text x="512.00" y="12.48" fill="#66ff66">r</text>
<text x="520.00" y="12.48" fill="#66ff66">i</text>
<text x="528.00" y="12.48" fill="#66ff66">t</text>
<text x="536.00" y="12.48" fill="#66ff66">y</text>
<text x="296.00" y="140.48" fill="#0f3f0f">┌</text>
<text x="312.00" y="140.48" fill="#66ff66" font-weight="bold">t</text>
<text x="320.00" y="140.48" fill="#66ff66" font-weight="bold">u</text>
<text x="328.00" y="140.48" fill="#66ff66" font-weight="bold">x</text>
<text x="336.00" y="140.48" fill="#66ff66" font-weight="bold">e</text>
<text x="344.00" y="140.48" fill="#66ff66" font-weight="bold">d</text>
<text x="352.00" y="140.48" fill="#66ff66" font-weight="bold">o</text>
<text x="368.00" y="140.48" fill="#0f3f0f">─</text>
<text x="376.00" y="140.48" fill="#0f3f0f">─</text>
<text x="384.00" y="140.48" fill="#0f3f0f">─</text>
<text x="392.00" y="140.48" fill="#0f3f0f">─</text>
<text x="400.00" y="140.48" fill="#0f3f0f">─</text>
<text x="408.00" y="140.48" fill="#0f3f0f">─</text>
<text x="416.00" y="140.48" fill="#0f3f0f">─</text>
<text x="424.00" y="140.48" fill="#0f3f0f">─</text>
<text x="432.00" y="140.48" fill="#0f3f0f">─</text>
<text x="440.00" y="140.48" fill="#0f3f0f">─</text>
<text x="448.00" y="140.48" fill="#0f3f0f">─</text>
<text x="456.00" y="140.48" fill="#0f3f0f">─</text>
<text x="464.00" y="140.48" fill="#0f3f0f">─</text>
<text x="472.00" y="140.48" fill="#0f3f0f">─</text>
<text x="480.00" y="140.48" fill="#0f3f0f">─</text>
<text x="488.00" y="140.48" fill="#0f3f0f">─</text>
<text x="496.00" y="140.48" fill="#0f3f0f">─</text>
<text x="504.00" y="140.48" fill="#0f3f0f">─</text>
<text x="512.00" y="140.48" fill="#0f3f0f">─</text>
<text x="520.00" y="140.48" fill="#0f3f0f">─</text>
<text x="528.00" y="140.48" fill="#0f3f0f">─</text>
<text x="536.00" y="140.48" fill="#0f3f0f">─</text>
<text x="544.00" y="140.48" fill="#0f3f0f">─</text>
<text x="552.00" y="140.48" fill="#0f3f0f">─</text>
<text x="560.00" y="140.48" fill="#0f3f0f">─</text>
<text x="568.00" y="140.48" fill="#0f3f0f">─</text>
<text x="576.00" y="140.48" fill="#0f3f0f">─</text>
<text x="584.00" y="140.48" fill="#0f3f0f">─</text>
<text x="592.00" y="140.48" fill="#0f3f0f">─</text>
<text x="600.00" y="140.48" fill="#0f3f0f">─</text>
<text x="608.00" y="140.48" fill="#0f3f0f">─</text>
<text x="616.00" y="140.48" fill="#0f3f0f">─</text>
<text x="624.00" y="140.48" fill="#0f3f0f">─</text>
<text x="632.00" y="140.48" fill="#0f3f0f">─</text>
<text x="640.00" y="140.48" fill="#0f3f0f">─</text>
<text x="648.00" y="140.48" fill="#0f3f0f">─</text>
<text x="656.00" y="140.48" fill="#0f3f0f">─</text>
<text x="664.00" y="140.48" fill="#0f3f0f">─</text>
<text x="672.00" y="140.48" fill="#0f3f0f">─</text>
<text x="680.00" y="140.48" fill="#0f3f0f">─</text>
<text x="688.00" y="140.48" fill="#0f3f0f">─</text>
<text x="696.00" y="140.48" fill="#0f3f0f">─</text>
<text x="704.00" y="140.48" fill="#0f3f0f">─</text>
<text x="712.00" y="140.48" fill="#0f3f0f">─</text>
<text x="720.00" y="140.48" fill="#0f3f0f">─</text>
<text x="728.00" y="140.48" fill="#0f3f0f">─</text>
<text x="736.00" y="140.48" fill="#0f3f0f">┐</text>
<text x="296.00" y="156.48" fill="#0f3f0f">│</text>
<text x="464.00" y="156.48" fill="#66ff66">█</text>
<text x="472.00" y="156.48" fill="#66ff66">█</text>
<text x="560.00" y="156.48" fill="#66ff66">█</text>
<text x="568.00" y="156.48" fill="#66ff66">█</text>
<text x="736.00" y="156.48" fill="#0f3f0f">│</text>
<text x="296.00" y="172.48" fill="#0f3f0f">│</text>
<text x="464.00" y="172.48" fill="#66ff66">█</text>
<text x="472.00" y="172.48" fill="#66ff66">█</text>
<text x="480.00" y="172.48" fill="#66ff66">█</text>
<text x="488.00" y="172.48" fill="#66ff66">█</text>
<text x="512.00" y="172.48" fill="#aaffaa">█</text>
<text x="520.00" y="172.48" fill="#aaffaa">█</text>
<text x="544.00" y="172.48" fill="#66ff66">█</text>
<text x="552.00" y="172.48" fill="#66ff66">█</text>
<text x="560.00" y="172.48" fill="#66ff66">█</text>
<text x="568.00" y="172.48" fill="#66ff66">█</text>
<text x="736.00" y="172.48" fill="#0f3f0f">│</text>
<text x="296.00" y="188.48" fill="#0f3f0f">│</text>
<text x="464.00" y="188.48" fill="#66ff66">█</text>
<text x="472.00" y="188.48" fill="#66ff66">█</text>
<text x="480.00" y="188.48" fill="#66ff66">█</text>
<text x="488.00" y="188.48" fill="#66ff66">█</text>
<text x="496.00" y="188.48" fill="#66ff66">█</text>
<text x="504.00" y="188.48" fill="#66ff66">█</text>
<text x="512.00" y="188.48" fill="#aaffaa">█</text>
<text x="520.00" y="188.48" fill="#aaffaa">█</text>
<text x="528.00" y="188.48" fill="#66ff66">█</text>
<text x="536.00" y="188.48" fill="#66ff66">█</text>
<text x="544.00" y="188.48" fill="#66ff66">█</text>
<text x="552.00" y="188.48" fill="#66ff66">█</text>
<text x="560.00" y="188.48" fill="#66ff66">█</text>
<text x="568.00" y="188.48" fill="#66ff66">█</text>
<text x="736.00" y="188.48" fill="#0f3f0f">│</text>
<text x="296.00" y="204.48" fill="#0f3f0f">│</text>
<text x="464.00" y="204.48" fill="#66ff66">█</text>
<text x="472.00" y="204.48" fill="#66ff66">█</text>
<text x="480.00" y="204.48" fill="#66ff66">█</text>
<text x="488.00" y="204.48" fill="#66ff66">█</text>
<text x="512.00" y="204.48" fill="#aaffaa">█</text>
<text x="520.00" y="204.48" fill="#aaffaa">█</text>
<text x="544.00" y="204.48" fill="#66ff66">█</text>
<text x="552.00" y="204.48" fill="#66ff66">█</text>
<text x="560.00" y="204.48" fill="#66ff66">█</text>
<text x="568.00" y="204.48" fill="#66ff66">█</text>
<text x="736.00" y="204.48" fill="#0f3f0f">│</text>
<text x="296.00" y="220.48" fill="#0f3f0f">│</text>
<text x="464.00" y="220.48" fill="#66ff66">█</text>
<text x="472.00" y="220.48" fill="#66ff66">█</text>
<text x="560.00" y="220.48" fill="#66ff66">█</text>
<text x="568.00" y="220.48" fill="#66ff66">█</text>
<text x="736.00" y="220.48" fill="#0f3f0f">│</text>
<text x="296.00" y="236.48" fill="#0f3f0f">│</text>
<text x="736.00" y="236.48" fill="#0f3f0f">│</text>
<text x="296.00" y="252.48" fill="#0f3f0f">│</text>
<text x="320.00" y="252.48" fill="#33ff33">n</text>
<text x="328.00" y="252.48" fill="#33ff33">o</text>
<text x="344.00" y="252.48" fill="#33ff33">t</text>
<text x="352.00" y="252.48" fill="#33ff33">a</text>
<text x="360.00" y="252.48" fill="#33ff33">s</text>
<text x="368.00" y="252.48" fill="#33ff33">k</text>
<text x="376.00" y="252.48" fill="#33ff33">s</text>
<text x="392.00" y="252.48" fill="#33ff33">y</text>
<text x="400.00" y="252.48" fill="#33ff33">e</text>
<text x="408.00" y="252.48" fill="#33ff33">t</text>
<text x="424.00" y="252.48" fill="#33ff33">—</text>
<text x="440.00" y="252.48" fill="#33ff33">l</text>
<text x="448.00" y="252.48" fill="#33ff33">e</text>
<text x="456.00" y="252.48" fill="#33ff33">t</text>
<text x="464.00" y="252.48" fill="#33ff33">'</text>
<text x="472.00" y="252.48" fill="#33ff33">s</text>
<text x="488.00" y="252.48" fill="#33ff33">g</text>
<text x="496.00" y="252.48" fill="#33ff33">e</text>
<text x="504.00" y="252.48" fill="#33ff33">t</text>
<text x="520.00" y="252.48" fill="#33ff33">s</text>
<text x="528.00" y="252.48" fill="#33ff33">t</text>
<text x="536.00" y="252.48" fill="#33ff33">a</text>
<text x="544.00" y="252.48" fill="#33ff33">r</text>
<text x="552.00" y="252.48" fill="#33ff33">t</text>
<text x="560.00" y="252.48" fill="#33ff33">e</text>
<text x="568.00" y="252.48" fill="#33ff33">d</text>
<text x="736.00" y="252.48" fill="#0f3f0f">│</text>
<text x="296.00" y="268.48" fill="#0f3f0f">│</text>
<text x="736.00" y="268.48" fill="#0f3f0f">│</text>
<text x="296.00" y="284.48" fill="#0f3f0f">│</text>
<text x="328.00" y="284.48" fill="#2adf2a" font-weight="bold">n</text>
<text x="360.00" y="284.48" fill="#33ff33">a</text>
<text x="368.00" y="284.48" fill="#33ff33">d</text>
<text x="376.00" y="284.48" fill="#33ff33">d</text>
<text x="392.00" y="284.48" fill="#33ff33">a</text>
<text x="408.00" y="284.48" fill="#33ff33">t</text>
<text x="416.00" y="284.48" fill="#33ff33">a</text>
<text x="424.00" y="284.48" fill="#33ff33">s</text>
<text x="432.00" y="284.48" fill="#33ff33">k</text>
<text x="736.00" y="284.48" fill="#0f3f0f">│</text>
<text x="296.00" y="300.48" fill="#0f3f0f">│</text>
<text x="328.00" y="300.48" fill="#2adf2a" font-weight="bold">?</text>
<text x="360.00" y="300.48" fill="#33ff33">s</text>
<text x="368.00" y="300.48" fill="#33ff33">h</text>
<text x="376.00" y="300.48" fill="#33ff33">o</text>
<text x="384.00" y="300.48" fill="#33ff33">w</text>
<text x="400.00" y="300.48" fill="#33ff33">a</text>
<text x="408.00" y="300.48" fill="#33ff33">l</text>
<text x="416.00" y="300.48" fill="#33ff33">l</text>
<text x="432.00" y="300.48" fill="#33ff33">k</text>
<text x="440.00" y="300.48" fill="#33ff33">e</text>
<text x="448.00" y="300.48" fill="#33ff33">y</text>
<text x="456.00" y="300.48" fill="#33ff33">b</text>
<text x="464.00" y="300.48" fill="#33ff33">i</text>
<text x="472.00" y="300.48" fill="#33ff33">n</text>
<text x="480.00" y="300.48" fill="#33ff33">d</text>
<text x="488.00" y="300.48" fill="#33ff33">i</text>
<text x="496.00" y="300.48" fill="#33ff33">n</text>
<text x="504.00" y="300.48" fill="#33ff33">g</text>
<text x="512.00" y="300.48" fill="#33ff33">s</text>
<text x="736.00" y="300.48" fill="#0f3f0f">│</text>
<text x="296.00" y="316.48" fill="#0f3f0f">│</text>
<text x="328.00" y="316.48" fill="#2adf2a" font-weight="bold">,</text>
<text x="360.00" y="316.48" fill="#33ff33">s</text>
<text x="368.00" y="316.48" fill="#33ff33">e</text>
<text x="376.00" y="316.48" fill="#33ff33">t</text>
<text x="384.00" y="316.48" fill="#33ff33">t</text>
<text x="392.00" y="316.48" fill="#33ff33">i</text>
<text x="400.00" y="316.48" fill="#33ff33">n</text>
<text x="408.00" y="316.48" fill="#33ff33">g</text>
<text x="416.00" y="316.48" fill="#33ff33">s</text>
<text x="736.00" y="316.48" fill="#0f3f0f">│</text>
<text x="296.00" y="332.48" fill="#0f3f0f">│</text>
<text x="328.00" y="332.48" fill="#2adf2a" font-weight="bold">q</text>
<text x="360.00" y="332.48" fill="#33ff33">q</text>
<text x="368.00" y="332.48" fill="#33ff33">u</text>
<text x="376.00" y="332.48" fill="#33ff33">i</text>
<text x="384.00" y="332.48" fill="#33ff33">t</text>
<text x="736.00" y="332.48" fill="#0f3f0f">│</text>
<text x="296.00" y="348.48" fill="#0f3f0f">│</text>
<text x="736.00" y="348.48" fill="#0f3f0f">│</text>
<text x="296.00" y="364.48" fill="#0f3f0f">│</text>
<text x="328.00" y="364.48" fill="#1d8f1d">f</text>
<text x="336.00" y="364.48" fill="#1d8f1d">o</text>
<text x="344.00" y="364.48" fill="#1d8f1d">r</text>
<text x="352.00" y="364.48" fill="#1d8f1d">m</text>
<text x="360.00" y="364.48" fill="#1d8f1d">a</text>
<text x="368.00" y="364.48" fill="#1d8f1d">t</text>
<text x="376.00" y="364.48" fill="#1d8f1d">:</text>
<text x="392.00" y="364.48" fill="#aaffaa" font-weight="bold">(</text>
<text x="400.00" y="364.48" fill="#aaffaa" font-weight="bold">A</text>
<text x="408.00" y="364.48" fill="#aaffaa" font-weight="bold">)</text>
<text x="424.00" y="364.48" fill="#33ff33">B</text>
<text x="432.00" y="364.48" fill="#33ff33">u</text>
<text x="440.00" y="364.48" fill="#33ff33">y</text>
<text x="456.00" y="364.48" fill="#33ff33">m</text>
<text x="464.00" y="364.48" fill="#33ff33">i</text>
<text x="472.00" y="364.48" fill="#33ff33">l</text>
<text x="480.00" y="364.48" fill="#33ff33">k</text>
<text x="496.00" y="364.48" fill="#66ff66">+</text>
<text x="504.00" y="364.48" fill="#66ff66">s</text>
<text x="512.00" y="364.48" fill="#66ff66">h</text>
<text x="520.00" y="364.48" fill="#66ff66">o</text>
<text x="528.00" y="364.48" fill="#66ff66">p</text>
<text x="544.00" y="364.48" fill="#2adf2a">@</text>
<text x="552.00" y="364.48" fill="#2adf2a">h</text>
<text x="560.00" y="364.48" fill="#2adf2a">o</text>
<text x="568.00" y="364.48" fill="#2adf2a">m</text>
<text x="576.00" y="364.48" fill="#2adf2a">e</text>
<text x="592.00" y="364.48" fill="#77ff77">d</text>
<text x="600.00" y="364.48" fill="#77ff77">u</text>
<text x="608.00" y="364.48" fill="#77ff77">e</text>
<text x="616.00" y="364.48" fill="#77ff77">:</text>
<text x="624.00" y="364.48" fill="#77ff77">2</text>
<text x="632.00" y="364.48" fill="#77ff77">0</text>
<text x="640.00" y="364.48" fill="#77ff77">2</text>
<text x="648.00" y="364.48" fill="#77ff77">6</text>
<text x="656.00" y="364.48" fill="#77ff77">-</text>
<text x="664.00" y="364.48" fill="#77ff77">0</text>
<text x="672.00" y="364.48" fill="#77ff77">5</text>
<text x="680.00" y="364.48" fill="#77ff77">-</text>
<text x="688.00" y="364.48" fill="#77ff77">1</text>
<text x="696.00" y="364.48" fill="#77ff77">2</text>
<text x="736.00" y="364.48" fill="#0f3f0f">│</text>
<text x="296.00" y="380.48" fill="#0f3f0f">└</text>
<text x="304.00" y="380.48" fill="#0f3f0f">─</text>
<text x="312.00" y="380.48" fill="#0f3f0f">─</text>
<text x="320.00" y="380.48" fill="#0f3f0f">─</text>
<text x="328.00" y="380.48" fill="#0f3f0f">─</text>
<text x="336.00" y="380.48" fill="#0f3f0f">─</text>
<text x="344.00" y="380.48" fill="#0f3f0f">─</text>
<text x="352.00" y="380.48" fill="#0f3f0f">─</text>
<text x="360.00" y="380.48" fill="#0f3f0f">─</text>
<text x="368.00" y="380.48" fill="#0f3f0f">─</text>
<text x="376.00" y="380.48" fill="#0f3f0f">─</text>
<text x="384.00" y="380.48" fill="#0f3f0f">─</text>
<text x="392.00" y="380.48" fill="#0f3f0f">─</text>
<text x="400.00" y="380.48" fill="#0f3f0f">─</text>
<text x="408.00" y="380.48" fill="#0f3f0f">─</text>
<text x="416.00" y="380.48" fill="#0f3f0f">─</text>
<text x="424.00" y="380.48" fill="#0f3f0f">─</text>
<text x="432.00" y="380.48" fill="#0f3f0f">─</text>
<text x="440.00" y="380.48" fill="#0f3f0f">─</text>
<text x="448.00" y="380.48" fill="#0f3f0f">─</text>
<text x="456.00" y="380.48" fill="#0f3f0f">─</text>
<text x="464.00" y="380.48" fill="#0f3f0f">─</text>
<text x="472.00" y="380.48" fill="#0f3f0f">─</text>
<text x="480.00" y="380.48" fill="#0f3f0f">─</text>
<text x="488.00" y="380.48" fill="#0f3f0f">─</text>
<text x="496.00" y="380.48" fill="#0f3f0f">─</text>
<text x="504.00" y="380.48" fill="#0f3f0f">─</text>
<text x="512.00" y="380.48" fill="#0f3f0f">─</text>
<text x="520.00" y="380.48" fill="#0f3f0f">─</text>
<text x="528.00" y="380.48" fill="#0f3f0f">─</text>
<text x="536.00" y="380.48" fill="#0f3f0f">─</text>
<text x="544.00" y="380.48" fill="#0f3f0f">─</text>
<text x="552.00" y="380.48" fill="#0f3f0f">─</text>
<text x="560.00" y="380.48" fill="#0f3f0f">─</text>
<text x="568.00" y="380.48" fill="#0f3f0f">─</text>
<text x="576.00" y="380.48" fill="#0f3f0f">─</text>
<text x="584.00" y="380.48" fill="#0f3f0f">─</text>
<text x="592.00" y="380.48" fill="#0f3f0f">─</text>
<text x="600.00" y="380.48" fill="#0f3f0f">─</text>
<text x="608.00" y="380.48" fill="#0f3f0f">─</text>
<text x="616.00" y="380.48" fill="#0f3f0f">─</text>
<text x="624.00" y="380.48" fill="#0f3f0f">─</text>
<text x="632.00" y="380.48" fill="#0f3f0f">─</text>
<text x="640.00" y="380.48" fill="#0f3f0f">─</text>
<text x="648.00" y="380.48" fill="#0f3f0f">─</text>
<text x="656.00" y="380.48" fill="#0f3f0f">─</text>
<text x="664.00" y="380.48" fill="#0f3f0f">─</text>
<text x="672.00" y="380.48" fill="#0f3f0f">─</text>
<text x="680.00" y="380.48" fill="#0f3f0f">─</text>
<text x="688.00" y="380.48" fill="#0f3f0f">─</text>
<text x="696.00" y="380.48" fill="#0f3f0f">─</text>
<text x="704.00" y="380.48" fill="#0f3f0f">─</text>
<text x="712.00" y="380.48" fill="#0f3f0f">─</text>
<text x="720.00" y="380.48" fill="#0f3f0f">─</text>
<text x="728.00" y="380.48" fill="#0f3f0f">─</text>
<text x="736.00" y="380.48" fill="#0f3f0f">┘</text>
<text x="8.00" y="508.48" fill="#020a02" font-weight="bold">N</text>
<text x="16.00" y="508.48" fill="#020a02" font-weight="bold">O</text>
<text x="24.00" y="508.48" fill="#020a02" font-weight="bold">R</text>
<text x="32.00" y="508.48" fill="#020a02" font-weight="bold">M</text>
<text x="40.00" y="508.48" fill="#020a02" font-weight="bold">A</text>
<text x="48.00" y="508.48" fill="#020a02" font-weight="bold">L</text>
<text x="80.00" y="508.48" fill="#33ff33">j</text>
<text x="88.00" y="508.48" fill="#33ff33">/</text>
<text x="96.00" y="508.48" fill="#33ff33">k</text>
<text x="112.00" y="508.48" fill="#33ff33">·</text>
<text x="128.00" y="508.48" fill="#33ff33">n</text>
<text x="144.00" y="508.48" fill="#33ff33">n</text>
<text x="152.00" y="508.48" fill="#33ff33">e</text>
<text x="160.00" y="508.48" fill="#33ff33">w</text>
<text x="176.00" y="508.48" fill="#33ff33">·</text>
<text x="192.00" y="508.48" fill="#33ff33">r</text>
<text x="208.00" y="508.48" fill="#33ff33">r</text>
<text x="216.00" y="508.48" fill="#33ff33">e</text>
<text x="224.00" y="508.48" fill="#33ff33">s</text>
<text x="232.00" y="508.48" fill="#33ff33">c</text>
<text x="240.00" y="508.48" fill="#33ff33">h</text>
<text x="248.00" y="508.48" fill="#33ff33">e</text>
<text x="256.00" y="508.48" fill="#33ff33">d</text>
<text x="264.00" y="508.48" fill="#33ff33">u</text>
<text x="272.00" y="508.48" fill="#33ff33">l</text>
<text x="280.00" y="508.48" fill="#33ff33">e</text>
<text x="296.00" y="508.48" fill="#33ff33">·</text>
<text x="312.00" y="508.48" fill="#33ff33">x</text>
<text x="328.00" y="508.48" fill="#33ff33">d</text>
<text x="336.00" y="508.48" fill="#33ff33">o</text>
<text x="344.00" y="508.48" fill="#33ff33">n</text>
<text x="352.00" y="508.48" fill="#33ff33">e</text>
<text x="368.00" y="508.48" fill="#33ff33">·</text>
<text x="384.00" y="508.48" fill="#33ff33">/</text>
<text x="400.00" y="508.48" fill="#33ff33">s</text>
<text x="408.00" y="508.48" fill="#33ff33">e</text>
<text x="416.00" y="508.48" fill="#33ff33">a</text>
<text x="424.00" y="508.48" fill="#33ff33">r</text>
<text x="432.00" y="508.48" fill="#33ff33">c</text>
<text x="440.00" y="508.48" fill="#33ff33">h</text>
<text x="456.00" y="508.48" fill="#33ff33">·</text>
<text x="472.00" y="508.48" fill="#33ff33">?</text>
<text x="488.00" y="508.48" fill="#33ff33">h</text>
<text x="496.00" y="508.48" fill="#33ff33">e</text>
<text x="504.00" y="508.48" fill="#33ff33">l</text>
<text x="512.00" y="508.48" fill="#33ff33">p</text>
<text x="528.00" y="508.48" fill="#33ff33">·</text>
<text x="544.00" y="508.48" fill="#33ff33">u</text>
<text x="560.00" y="508.48" fill="#33ff33">u</text>
<text x="568.00" y="508.48" fill="#33ff33">n</text>
<text x="576.00" y="508.48" fill="#33ff33">d</text>
<text x="584.00" y="508.48" fill="#33ff33">o</text>
<text x="600.00" y="508.48" fill="#33ff33">·</text>
<text x="616.00" y="508.48" fill="#33ff33">q</text>
<text x="632.00" y="508.48" fill="#33ff33">q</text>
<text x="640.00" y="508.48" fill="#33ff33">u</text>
<text x="648.00" y="508.48" fill="#33ff33">i</text>
<text x="656.00" y="508.48" fill="#33ff33">t</text>
<text x="736.00" y="508.48" fill="#1d8f1d">0</text>
<text x="752.00" y="508.48" fill="#1d8f1d">o</text>
<text x="760.00" y="508.48" fill="#1d8f1d">p</text>
<text x="768.00" y="508.48" fill="#1d8f1d">e</text>
<text x="776.00" y="508.48" fill="#1d8f1d">n</text>
<text x="792.00" y="508.48" fill="#1d8f1d">·</text>
<text x="808.00" y="508.48" fill="#1d8f1d">2</text>
<text x="816.00" y="508.48" fill="#1d8f1d">0</text>
<text x="824.00" y="508.48" fill="#1d8f1d">2</text>
<text x="832.00" y="508.48" fill="#1d8f1d">6</text>
<text x="840.00" y="508.48" fill="#1d8f1d">-</text>
<text x="848.00" y="508.48" fill="#1d8f1d">0</text>
<text x="856.00" y="508.48" fill="#1d8f1d">5</text>
<text x="864.00" y="508.48" fill="#1d8f1d">-</text>
<text x="872.00" y="508.48" fill="#1d8f1d">0</text>
<text x="880.00" y="508.48" fill="#1d8f1d">6</text>
<text x="896.00" y="508.48" fill="#1d8f1d">·</text>
<text x="912.00" y="508.48" fill="#1d8f1d">t</text>
<text x="920.00" y="508.48" fill="#1d8f1d">u</text>
<text x="928.00" y="508.48" fill="#1d8f1d">x</text>
<text x="936.00" y="508.48" fill="#1d8f1d">e</text>
<text x="944.00" y="508.48" fill="#1d8f1d">d</text>
<text x="952.00" y="508.48" fill="#1d8f1d">o</text>
<text x="968.00" y="508.48" fill="#1d8f1d">2</text>
<text x="976.00" y="508.48" fill="#1d8f1d">0</text>
<text x="984.00" y="508.48" fill="#1d8f1d">2</text>
<text x="992.00" y="508.48" fill="#1d8f1d">6</text>
<text x="1000.00" y="508.48" fill="#1d8f1d">.</text>
<text x="1008.00" y="508.48" fill="#1d8f1d">6</text>
<text x="1016.00" y="508.48" fill="#1d8f1d">.</text>
<text x="1024.00" y="508.48" fill="#1d8f1d">3</text>
</svg>
